<svg xmlns="http://www.w3.org/2000/svg" version="1.1" xmlns:xlink="http://www.w3.org/1999/xlink" xmlns:svgjs="http://svgjs.dev/svgjs" width="1000" height="623" viewBox="0 0 1000 623"><g transform="matrix(1,0,0,1,-0.6060606060606233,0.2522267206477409)"><svg viewBox="0 0 396 247" data-background-color="#ffffff" preserveAspectRatio="xMidYMid meet" height="623" width="1000" xmlns="http://www.w3.org/2000/svg" xmlns:xlink="http://www.w3.org/1999/xlink"><g id="tight-bounds" transform="matrix(1,0,0,1,0.2400000000000091,-0.09999999999999432)"><svg viewBox="0 0 395.52 247.2" height="247.2" width="395.52"><g><svg></svg></g><g><svg viewBox="0 0 395.52 247.2" height="247.2" width="395.52"><g transform="matrix(1,0,0,1,75.54432,99.60610446535044)"><svg viewBox="0 0 244.43135999999998 47.9877910692991" height="47.9877910692991" width="244.43135999999998"><g><svg viewBox="0 0 244.43135999999998 47.9877910692991" height="47.9877910692991" width="244.43135999999998"><g><svg viewBox="0 0 327.83229440434025 64.36141274852962" height="47.9877910692991" width="244.43135999999998"><g transform="matrix(1,0,0,1,0,8.895101183045703)"><svg viewBox="0 0 244.43135999999996 46.57121038243821" height="46.57121038243821" width="244.43135999999996"><g id="textblocktransform"><svg viewBox="0 0 244.43135999999996 46.57121038243821" height="46.57121038243821" width="244.43135999999996" id="textblock"><g><svg viewBox="0 0 244.43135999999996 46.57121038243821" height="46.57121038243821" width="244.43135999999996"><g transform="matrix(1,0,0,1,0,0)"><svg width="244.43135999999996" viewBox="-0.27000001072883606 -33.08000183105469 176.82000732421875 33.69000244140625" height="46.57121038243821" data-palette-color="#636365"><path d="M8.86-7.03L6.57 0.2Q4.47 0 1.66 0L1.66 0-0.27 0 10.35-29.76Q11.06-31.76 11.06-32.09 11.06-32.42 11.04-32.5L11.04-32.5 11.06-32.54Q12.65-32.47 14.43-32.47L14.43-32.47Q15.89-32.47 17.94-32.52L17.94-32.52 17.97-32.47Q17.92-32.37 17.92-32.2L17.92-32.2Q17.92-31.74 18.65-29.74L18.65-29.74 29.49 0.07Q29 0.05 28.34 0.05L28.34 0.05Q28.34 0.05 27.08 0L27.08 0Q26.46 0 25.98 0L25.98 0 22.19 0 19.9-7.03 8.86-7.03ZM10.72-12.89L17.99-12.89 14.31-24.24 10.72-12.89ZM34.18 0L34.18-32.57Q36.62-32.47 37.13-32.47L37.13-32.47 38.89-32.47Q40.18-32.47 40.96-32.67L40.96-32.67 40.94 0 34.18 0ZM55.71 0L48.58 0Q48.8-1.49 48.8-2.64 48.8-3.78 48.79-4.21 48.77-4.64 48.75-5.05 48.73-5.47 48.7-5.83L48.7-5.83 48.63-6.45 55.71-6.45Q55.63-5.52 55.63-4.93L55.63-4.93 55.59-3.91Q55.59-3.44 55.59-2.16 55.59-0.88 55.71 0L55.71 0ZM89.25-19.63L89.32-19.58Q88.86-18.75 88.86-15.6L88.86-15.6 88.86-8.03Q88.86-4.59 85.3-2.05L85.3-2.05Q81.61 0.61 76.26 0.61L76.26 0.61Q68.84 0.61 64.42-4.05L64.42-4.05Q60.15-8.5 60.15-15.38L60.15-15.38Q60.15-22.71 64.49-27.59L64.49-27.59Q69.35-33.08 77.87-33.08L77.87-33.08Q83.56-33.08 86.88-30.88L86.88-30.88 86.49-23.68 86.3-23.63Q85.44-25.12 82.93-26.07L82.93-26.07Q80.53-26.98 77.91-26.98 75.29-26.98 73.32-26.15 71.35-25.32 69.99-23.78L69.99-23.78Q67.11-20.63 67.11-15.45L67.11-15.45Q67.11-10.94 69.65-8.2L69.65-8.2Q72.18-5.49 76.19-5.49L76.19-5.49Q80.61-5.49 82.15-7.79L82.15-7.79Q82.63-8.52 82.63-9.45L82.63-9.45 82.63-13.5 79.48-13.5Q76.95-13.5 76.73-13.06L76.73-13.06 76.65-13.09 76.43-19.46Q77.12-19.26 81.97-19.26L81.97-19.26 84.86-19.26Q87.54-19.26 89.25-19.63L89.25-19.63ZM101.02-17.77L101.02-2.73Q101.02-0.63 101.11 0L101.11 0 95.03 0 95.03-25.51 101.02-25.51 101.02-23.63Q103.09-26 105.37-26 107.66-26 108.97-25.44L108.97-25.44 108.53-18.87 108.44-18.8Q107.58-20.31 104.9-20.31L104.9-20.31Q103.87-20.31 102.81-19.62 101.75-18.92 101.02-17.77L101.02-17.77ZM128.8-1.51L128.8-1.51Q125.33 0.37 122.52 0.37 119.71 0.37 117.71-0.16 115.71-0.68 114.32-1.71L114.32-1.71Q111.49-3.78 111.49-7.71L111.49-7.71Q111.49-11.23 114.95-13.57L114.95-13.57Q118.71-16.11 125.16-16.11L125.16-16.11 126.13-16.09Q126.43-16.06 126.79-16.05 127.16-16.04 127.45-15.99L127.45-15.99Q127.26-19.9 124.08-20.56L124.08-20.56Q123.03-20.78 121.85-20.78 120.67-20.78 119.53-20.57 118.4-20.36 117.32-20.02L117.32-20.02Q114.95-19.26 113.93-18.29L113.93-18.29 113.85-18.33 113.12-23.73Q117.44-26 122.57-26L122.57-26Q130.53-26 132.75-20.26L132.75-20.26Q133.46-18.43 133.46-16.14L133.46-16.14 133.46-7.3Q133.46-4.47 135.46-3.44L135.46-3.44 131.04 0.61Q129.65-0.12 128.8-1.51ZM127.48-6.49L127.48-11.6Q126.82-11.72 126.11-11.72L126.11-11.72 125.13-11.72Q119.74-11.72 118.27-9.33L118.27-9.33Q117.83-8.62 117.83-7.84 117.83-7.06 118.11-6.46 118.4-5.86 119.05-5.47L119.05-5.47Q120.32-4.74 122.83-4.74 125.33-4.74 127.5-5.93L127.5-5.93Q127.48-6.2 127.48-6.49L127.48-6.49ZM147.67-17.16L147.67-7.06Q147.67-1.56 147.86 0L147.86 0 141.49 0 141.49-25.51 147.67-25.51 147.67-23.32Q151.01-26 154.53-26L154.53-26Q158.68-26 160.56-22.41L160.56-22.41Q162.44-24.34 163.68-24.95L163.68-24.95Q165.76-26 167.84-26 169.93-26 171.4-25.29 172.86-24.58 173.81-23.29L173.81-23.29Q175.74-20.68 175.74-16.11L175.74-16.11 175.74-6.4Q175.74-2.27 175.86-1.44 175.99-0.61 176.19-0.37 176.4-0.12 176.55 0.07L176.55 0.07 176.5 0.17Q174.55 0 173.62 0L173.62 0 171.79 0Q170.88 0 169.57 0.07L169.57 0.07 169.57-13.13Q169.57-18.85 167.81-19.92L167.81-19.92Q167.22-20.26 166.43-20.26 165.63-20.26 165.02-20.08 164.41-19.9 163.88-19.48L163.88-19.48Q162.97-18.82 161.83-16.89L161.83-16.89Q161.85-16.7 161.85-16.5 161.85-16.31 161.85-10.06 161.85-3.81 162.14 0L162.14 0Q160.07 0 158.62 0 157.16 0 155.84 0.07L155.84 0.07 155.84-13.16Q155.84-17.14 155.37-18.33 154.89-19.53 154.36-19.9 153.82-20.26 153.04-20.26L153.04-20.26Q149.81-20.26 147.67-17.16L147.67-17.16Z" opacity="1" transform="matrix(1,0,0,1,0,0)" fill="#636365" class="undefined-text-0" data-fill-palette-color="primary" id="text-0"></path></svg></g></svg></g></svg></g></svg></g><g transform="matrix(1,0,0,1,255.42570506224445,0)"><svg viewBox="0 0 72.40658934209583 64.36141274852962" height="64.36141274852962" width="72.40658934209583"><g><svg xmlns="http://www.w3.org/2000/svg" xmlns:xlink="http://www.w3.org/1999/xlink" version="1.0" x="0" y="0" viewBox="5 10 90 80" enable-background="new 0 0 100 100" xml:space="preserve" height="64.36141274852962" width="72.40658934209583" class="icon-icon-0" data-fill-palette-color="accent" id="icon-0"><path d="M95 30H78.1l-10-20H31.9l-10 20H5v60h90V30zM85 80H15V40h13.1l10-20h23.8l10 20H85V80z" fill="#636365" data-fill-palette-color="accent"></path><path d="M50 35c-11 0-20 9-20 20s9 20 20 20 20-9 20-20S61 35 50 35zM50 65c-5.5 0-10-4.5-10-10s4.5-10 10-10 10 4.5 10 10S55.5 65 50 65z" fill="#636365" data-fill-palette-color="accent"></path></svg></g></svg></g></svg></g></svg></g></svg></g><path d="M204.529 93.606L204.529 30.325 391.08 30.325 391.08 216.875 204.529 216.875 204.529 153.594 207.66 153.594 207.66 213.744 387.948 213.744 387.948 33.456 207.66 33.456 207.66 93.606Z" fill="#636365" stroke="transparent" data-fill-palette-color="primary"></path></svg></g><defs></defs></svg><rect width="395.52" height="247.2" fill="none" stroke="none" visibility="hidden"></rect></g></svg></g></svg>